<svg width="60" height="60" viewBox="0 0 60 60" fill="none" xmlns="http://www.w3.org/2000/svg">
<g clip-path="url(#clip0_1_42)">
<path d="M23.4292 28.2244C22.944 28.2244 22.5503 28.6176 22.5503 29.1033V30.2916C22.5503 30.7769 22.944 31.1705 23.4292 31.1705C23.9149 31.1705 24.3082 30.7769 24.3082 30.2916V29.1033C24.3082 28.6176 23.9149 28.2244 23.4292 28.2244Z" fill="#AA0630"/>
<path d="M36.5586 31.1705C37.0443 31.1705 37.4375 30.7769 37.4375 30.2916V29.1033C37.4375 28.6176 37.0443 28.2244 36.5586 28.2244C36.0734 28.2244 35.6797 28.6176 35.6797 29.1033V30.2916C35.6797 30.7769 36.0734 31.1705 36.5586 31.1705Z" fill="#AA0630"/>
<path d="M32.276 30.7873C32.5955 30.4216 32.5584 29.8663 32.1926 29.5468C31.8273 29.2272 31.2721 29.2643 30.9526 29.6301C30.7214 29.8947 30.3717 30.0462 29.994 30.0462C29.6163 30.0462 29.2666 29.8947 29.0354 29.6301C28.7159 29.2643 28.1607 29.2272 27.7954 29.5468C27.4296 29.8663 27.3925 30.4216 27.7121 30.7869C28.2769 31.4337 29.1087 31.8045 29.994 31.8045C30.8793 31.8045 31.7111 31.4337 32.276 30.7873Z" fill="#AA0630"/>
<path d="M59.6418 23.1262C58.6032 18.988 55.4611 15.8372 51.5285 14.6937C52.1556 11.9952 51.3577 9.11131 49.3724 7.12599C47.8435 5.59706 45.8105 4.75524 43.6485 4.75524C42.3769 4.75524 41.1382 5.05049 40.0166 5.614C37.9453 2.24853 34.2278 0 29.9944 0C25.761 0 22.0435 2.24853 19.9717 5.614C18.8506 5.05049 17.6119 4.75524 16.3402 4.75524C14.1778 4.75524 12.1453 5.59706 10.6164 7.12599C8.6306 9.11131 7.83318 11.9952 8.46031 14.6937C4.52768 15.8372 1.38559 18.988 0.34693 23.1262C-0.531059 26.6235 0.285132 30.4202 2.50574 33.2574C1.02717 35.6377 0.875646 38.5944 2.14227 41.1336C3.03217 42.918 4.50708 44.2753 6.33492 45.0145C6.30608 48.4583 7.77779 51.8856 10.6452 54.2302C12.7399 55.9432 15.3817 56.8866 18.0834 56.8866C19.7968 56.8866 21.4571 56.5186 22.9691 55.8296C24.4001 58.3299 27.0661 59.901 29.9944 59.901C32.9227 59.901 35.5887 58.3299 37.0192 55.8296C38.5312 56.5186 40.1915 56.8866 41.9058 56.8866C44.6071 56.8866 47.2484 55.9432 49.3436 54.2302C52.211 51.8856 53.6827 48.4583 53.6534 45.0145C55.4817 44.2753 56.9561 42.918 57.8465 41.1336C59.1127 38.5944 58.9611 35.6377 57.4826 33.2574C57.7865 32.8692 58.068 32.4604 58.3253 32.0306C59.9389 29.3353 60.4068 26.173 59.6418 23.1262ZM40.8273 7.17314C41.6985 6.73964 42.6607 6.51305 43.6485 6.51305C45.3413 6.51305 46.9325 7.17222 48.1291 8.36927C49.6924 9.93207 50.3158 12.2076 49.8091 14.3307C46.7769 13.9265 43.8115 14.87 41.1583 16.2817C41.1464 16.2876 41.135 16.2931 41.1235 16.2996C41.4911 14.8196 41.7552 13.2898 41.7552 11.7608C41.7552 10.161 41.4435 8.62196 40.8273 7.17314ZM29.6772 40.8283C24.0787 40.6278 19.1724 35.667 19.1724 30.0141C19.1724 23.9794 24.4738 18.9381 30.5025 19.2045C30.5153 19.2054 30.5281 19.2054 30.5414 19.2063C35.9348 19.4691 40.5316 24.0183 40.8022 29.4621C40.8031 29.4753 40.8031 29.4886 40.804 29.5019C41.0892 35.6556 35.8679 41.0503 29.6772 40.8283ZM29.9944 1.75827C35.3905 1.75827 39.9974 6.36382 39.9974 11.7608C39.9974 14.6594 39.0901 17.5584 37.9476 20.1933C37.9398 20.2116 37.932 20.2294 37.9242 20.2473C36.3477 18.9628 34.5043 18.094 32.5308 17.6912C31.9838 17.5799 31.4299 17.5039 30.8733 17.4655V9.14747C30.8733 8.66224 30.4801 8.26857 29.9944 8.26857C29.5092 8.26857 29.1155 8.66224 29.1155 9.14747V17.4655C26.5461 17.6422 24.0618 18.6204 22.0646 20.2473C22.0568 20.2294 22.049 20.2111 22.0412 20.1933C20.8318 17.4046 19.8623 14.3504 20.0037 11.277C20.0046 11.2619 20.0051 11.2463 20.006 11.2307C20.2825 5.96053 24.6569 1.75827 29.9944 1.75827ZM11.8597 8.36927C13.7612 6.46727 16.7522 5.97472 19.1614 7.17314C18.5453 8.6215 18.2335 10.161 18.2335 11.7608C18.2335 12.6809 18.3352 13.5988 18.489 14.5051C18.5874 15.0883 18.7133 15.6884 18.8653 16.2996C18.8538 16.2931 18.8419 16.2876 18.8305 16.2817C16.6465 15.1217 14.2478 14.2259 11.7452 14.2259C11.2229 14.2259 10.6974 14.2616 10.1797 14.3307C9.67247 12.2076 10.2964 9.93207 11.8597 8.36927ZM2.0521 23.5542C3.13287 19.2485 7.21703 16.0226 11.6573 15.9855C14.2785 15.9636 16.7609 17.0718 18.9779 18.3778C19.1848 18.4991 19.3894 18.6236 19.5926 18.7504C19.9209 19.6925 20.2916 20.6204 20.7105 21.5258C19.6023 22.7348 18.7559 24.125 18.1978 25.6274C15.2297 24.493 11.9686 23.9474 8.48824 24.0083C8.00255 24.017 7.6162 24.4171 7.6249 24.9027C7.63314 25.388 8.03276 25.7775 8.51891 25.7661C11.8249 25.7089 14.9102 26.2316 17.7025 27.3197C17.6023 27.7812 17.5281 28.2504 17.4801 28.7251C17.4796 28.7278 17.4796 28.7306 17.4792 28.7333C17.253 31.0954 17.6714 33.4949 18.7311 35.6213C18.7073 35.586 18.2853 35.705 18.2258 35.7155C15.8729 36.1225 13.4334 36.2731 11.0563 35.9975C4.99047 35.293 0.51676 29.6717 2.0521 23.5542ZM6.49468 43.1597C5.2958 42.5495 4.32855 41.5781 3.7156 40.349C2.79962 38.5129 2.83075 36.3972 3.7536 34.6155C4.91769 35.6986 6.29372 36.534 7.81533 37.0719C8.25386 37.2266 8.7011 37.3557 9.15428 37.4592C9.15932 37.4601 9.15794 37.4747 9.15291 37.4807C8.58116 38.1504 8.06527 38.8773 7.67113 39.6665C7.09756 40.7592 6.70022 41.9343 6.49468 43.1597ZM11.758 52.8693C9.09798 50.694 7.84966 47.4233 8.13073 44.2341C8.3445 41.807 9.52141 39.5209 11.2421 37.8158C11.2518 37.8066 11.2618 37.797 11.2714 37.7874C11.2742 37.7878 11.2774 37.7878 11.2801 37.7883C14.0272 38.0744 16.8722 37.8194 19.5661 37.2486C19.6055 37.2404 19.6457 37.233 19.6856 37.2243C20.0202 37.7036 20.3855 38.1541 20.7755 38.5757C18.2555 40.7949 16.18 43.6083 14.6021 46.9559C14.3952 47.3949 14.5829 47.9186 15.0223 48.126C15.4563 48.3306 15.9873 48.1401 16.1924 47.7057C17.6934 44.5211 19.6668 41.8606 22.0623 39.7841C23.9904 41.3552 26.3543 42.3243 28.8852 42.5449C29.2079 42.5728 29.5325 42.5898 29.8571 42.5934C29.8534 42.6085 29.8497 42.6236 29.8461 42.6388C28.4288 48.4505 24.9434 55.1288 18.0839 55.1288C15.7863 55.1288 13.5396 54.3263 11.758 52.8693ZM29.9944 58.1432C27.7129 58.1432 25.6342 56.9246 24.5104 54.9832C24.6395 55.159 27.0967 52.6894 27.1942 52.5704C28.216 51.3211 29.1851 49.6265 29.9958 47.7341C30.6174 49.182 31.3494 50.5924 32.2663 51.8764C33.1378 53.0977 34.2209 54.1625 35.4788 54.9832C34.3546 56.9246 32.2763 58.1432 29.9944 58.1432ZM48.2307 52.8693C45.0951 55.4332 40.5989 55.8342 37.0549 53.8768C33.9966 52.1877 32.3262 49.0277 31.1411 45.8696C31.066 45.6705 30.9937 45.4705 30.9236 45.2695C31.2194 44.365 31.473 43.4458 31.6794 42.5165C31.6822 42.5046 31.6854 42.4923 31.6881 42.4799C34.0296 42.1631 36.1682 41.2005 37.9187 39.7768C40.3178 41.8541 42.294 44.5174 43.7968 47.7057C44.0005 48.1383 44.5352 48.3292 44.9669 48.126C45.4059 47.9186 45.594 47.3949 45.3871 46.9559C43.8078 43.6065 41.7314 40.7921 39.2096 38.5724C39.6028 38.1504 39.969 37.7009 40.3032 37.2243C43.0498 37.824 45.908 38.0346 48.7095 37.7883C48.7118 37.7878 48.7146 37.7878 48.7173 37.7878C48.7269 37.797 48.737 37.8066 48.7466 37.8162C52.9645 42.008 52.9196 49.0351 48.2307 52.8693ZM56.2732 40.349C55.6602 41.5781 54.693 42.5495 53.4941 43.1597C53.2885 41.9338 52.8912 40.7578 52.3167 39.6647C51.907 38.8851 51.4103 38.1467 50.8354 37.4798C50.8304 37.4738 50.8253 37.4679 50.8208 37.4624C50.8253 37.461 50.8299 37.4601 50.8345 37.4587C51.2895 37.3553 51.7235 37.1841 52.1739 37.0714C53.695 36.5336 55.0711 35.6986 56.2356 34.6155C57.158 36.3967 57.1891 38.5129 56.2732 40.349ZM56.817 31.1274C53.6699 36.3834 46.7915 36.6617 41.416 35.6533C41.3629 35.6432 41.3098 35.6327 41.2567 35.6226C41.5099 35.115 41.7268 34.5913 41.9081 34.0562C41.9099 34.0511 41.9118 34.0456 41.9136 34.0401C42.4606 32.4503 42.6685 30.7328 42.538 29.0579C42.4927 28.4733 42.4107 27.8928 42.2862 27.3197C45.0786 26.2316 48.1634 25.7084 51.4694 25.7661C51.9592 25.7771 52.3552 25.388 52.3639 24.9027C52.3721 24.4175 51.9858 24.017 51.5001 24.0083C48.0192 23.9474 44.7591 24.493 41.7909 25.6274C41.2329 24.1241 40.3861 22.7339 39.2783 21.5258C39.2847 21.5121 40.0748 19.6788 40.3957 18.7504C40.4204 18.7348 40.4451 18.7193 40.4698 18.7042C43.3784 16.9043 46.7673 15.4705 50.2481 16.1888C50.2623 16.1915 50.2765 16.1933 50.2907 16.1952C53.9798 16.9647 56.9882 19.7763 57.9367 23.5542C58.5872 26.1456 58.1894 28.8354 56.817 31.1274Z" fill="#AA0630"/>
</g>
<defs>
<clipPath id="clip0_1_42">
<rect width="60" height="60" fill="white"/>
</clipPath>
</defs>
</svg>
