<svg width="60" height="60" viewBox="0 0 60 60" fill="none" xmlns="http://www.w3.org/2000/svg">
<path d="M43.2096 20.1783C42.1662 19.2994 40.8411 18.8794 39.4838 18.9962C38.1244 19.1127 36.892 19.7516 36.0136 20.7952L28.382 29.858L24.6988 26.0276C22.7472 23.9976 19.5075 23.934 17.4777 25.8859C16.4943 26.8313 15.9381 28.1031 15.9114 29.467C15.8845 30.831 16.3907 32.1237 17.3361 33.107L24.952 41.0278C25.9097 42.0239 27.2514 42.5952 28.6332 42.5952C28.6889 42.5952 28.7446 42.5942 28.8016 42.5924C30.2467 42.5448 31.6092 41.8833 32.5399 40.7777L43.8265 27.3744C44.7053 26.3311 45.125 25.0079 45.0086 23.6487C44.8918 22.2894 44.2531 21.0568 43.2096 20.1783ZM42.0338 25.8645L30.7471 39.268C30.2435 39.8661 29.5063 40.2239 28.7259 40.2497C27.9456 40.2743 27.1812 39.9643 26.6416 39.4033L19.0256 31.4824C18.5141 30.9503 18.2404 30.2508 18.2548 29.5129C18.2692 28.7748 18.5701 28.0867 19.1022 27.5752C19.6372 27.0607 20.3276 26.8051 21.017 26.8051C21.7429 26.8051 22.4679 27.0886 23.0095 27.6519L27.5951 32.4209C27.8252 32.6604 28.1459 32.7898 28.4783 32.7798C28.8104 32.7689 29.1222 32.6175 29.3361 32.3635L37.8066 22.3045C38.2819 21.7399 38.9486 21.3942 39.684 21.3312C40.4184 21.2678 41.1354 21.4952 41.7 21.9708C42.2646 22.4462 42.6103 23.1131 42.6734 23.8485C42.7364 24.5838 42.5092 25.3 42.0338 25.8645Z" fill="#AA0630"/>
<path d="M30 7.12567C17.2119 7.12567 6.80812 17.5295 6.80812 30.3175C6.80812 43.1056 17.2119 53.5095 30 53.5095C42.7881 53.5095 53.1919 43.1056 53.1919 30.3175C53.1919 17.5295 42.7881 7.12567 30 7.12567ZM30 51.1658C18.5043 51.1658 9.15187 41.8133 9.15187 30.3177C9.15187 18.822 18.5043 9.46942 30 9.46942C41.4957 9.46942 50.8481 18.8219 50.8481 30.3175C50.8481 41.8132 41.4957 51.1658 30 51.1658Z" fill="#AA0630"/>
<path d="M58.3989 34.3461C59.1493 33.1795 60 31.8571 60 30.3175C60 28.7779 59.1493 27.4556 58.3989 26.289C57.8965 25.5079 57.422 24.7702 57.2698 24.1017C57.1073 23.3882 57.216 22.4915 57.3308 21.5421C57.5028 20.1219 57.6806 18.6534 57.034 17.315C56.3761 15.9532 55.0452 15.1372 53.8711 14.4172C53.0665 13.9238 52.3065 13.4579 51.8645 12.9051C51.4178 12.3465 51.1294 11.4992 50.8239 10.6021C50.382 9.30382 49.881 7.8323 48.7055 6.89503C47.5361 5.96269 45.9925 5.80085 44.6305 5.65823C43.6827 5.55886 42.7874 5.46511 42.1356 5.15116C41.5061 4.84788 40.8865 4.21648 40.2305 3.54816C39.2619 2.56109 38.1641 1.44241 36.675 1.10444C35.2411 0.779015 33.857 1.27589 32.5181 1.75636C31.6076 2.08308 30.7478 2.39175 30 2.39175C29.2522 2.39175 28.3923 2.08308 27.4819 1.75636C26.1429 1.27577 24.7586 0.778781 23.3249 1.10444C21.8359 1.44253 20.7381 2.5612 19.7694 3.54816C19.1135 4.21648 18.4941 4.84788 17.8645 5.15116C17.2126 5.46511 16.3174 5.55886 15.3695 5.65823C14.0075 5.80085 12.4638 5.96257 11.2945 6.89491C10.1191 7.83206 9.61816 9.30359 9.17625 10.6018C8.87086 11.499 8.58234 12.3464 8.13551 12.905C7.69348 13.4579 6.9334 13.9238 6.12891 14.4172C4.95469 15.1372 3.62391 15.953 2.96602 17.315C2.31938 18.6533 2.49727 20.1217 2.66918 21.5418C2.78414 22.4913 2.89277 23.3881 2.73023 24.1016C2.57801 24.7702 2.10352 25.5079 1.60113 26.289C0.850664 27.4557 0 28.778 0 30.3175C0 31.8571 0.850664 33.1795 1.60113 34.3461C2.10352 35.1271 2.57801 35.8648 2.73023 36.5334C2.89266 37.2468 2.78402 38.1435 2.66918 39.093C2.49715 40.5132 2.31938 41.9817 2.96602 43.3201C3.62391 44.6819 4.9548 45.4979 6.12891 46.2179C6.93352 46.7112 7.69348 47.1772 8.13551 47.7299C8.58223 48.2886 8.87063 49.1358 9.17613 50.0329C9.61805 51.3312 10.119 52.8028 11.2945 53.74C12.4639 54.6724 14.0075 54.8342 15.3695 54.9768C16.3173 55.0762 17.2126 55.1699 17.8644 55.4839C18.4939 55.7872 19.1135 56.4186 19.7695 57.0869C20.7381 58.074 21.8359 59.1926 23.325 59.5306C24.7589 59.856 26.1431 59.3593 27.4819 58.8787C28.3924 58.552 29.2522 58.2433 30 58.2433C30.7478 58.2433 31.6077 58.552 32.5181 58.8787C33.558 59.2519 34.6252 59.6349 35.7218 59.6349C36.037 59.6349 36.3548 59.6031 36.6751 59.5305C38.1641 59.1924 39.2619 58.0737 40.2306 57.0868C40.8865 56.4185 41.5059 55.7871 42.1355 55.4838C42.7874 55.1698 43.6826 55.0761 44.6305 54.9767C45.9925 54.8341 47.5362 54.6724 48.7055 53.74C49.8809 52.8029 50.3818 51.3314 50.8238 50.0331C51.1291 49.136 51.4177 48.2886 51.8645 47.7299C52.3065 47.1771 53.0666 46.7111 53.8711 46.2178C55.0453 45.4978 56.3761 44.6819 57.034 43.32C57.6806 41.9817 57.5027 40.5132 57.3308 39.0931C57.2159 38.1437 57.1072 37.2468 57.2698 36.5334C57.422 35.8648 57.8965 35.1271 58.3989 34.3461ZM56.4278 33.0782C55.838 33.995 55.2281 34.9432 54.9845 36.0133C54.7317 37.1241 54.8701 38.2683 55.0042 39.3751C55.1416 40.5097 55.2713 41.5814 54.9238 42.3007C54.5648 43.0434 53.6329 43.6149 52.646 44.2199C51.7051 44.7969 50.732 45.3936 50.034 46.2664C49.3311 47.1453 48.9621 48.2296 48.6052 49.2781C48.2339 50.3684 47.8834 51.3983 47.2445 51.9077C46.6107 52.413 45.5303 52.5261 44.3863 52.646C43.2807 52.7617 42.1376 52.8815 41.1183 53.3725C40.1198 53.8535 39.3257 54.6628 38.5576 55.4453C37.7432 56.2755 36.9736 57.0595 36.1563 57.245C35.3889 57.4195 34.3793 57.0567 33.3098 56.6728C32.2507 56.2927 31.1555 55.8996 30 55.8996C28.8445 55.8996 27.7493 56.2926 26.6902 56.6728C25.6207 57.0564 24.6111 57.4194 23.8438 57.245C23.0263 57.0595 22.257 56.2755 21.4424 55.4455C20.6742 54.6628 19.8802 53.8535 18.8816 53.3726C17.8624 52.8816 16.7193 52.7619 15.6137 52.6461C14.4697 52.5263 13.3894 52.4131 12.7556 51.9077C12.1165 51.3981 11.7659 50.3682 11.3947 49.2779C11.0378 48.2295 10.6687 47.1453 9.96598 46.2665C9.26789 45.3936 8.29488 44.797 7.35398 44.2199C6.36727 43.615 5.43516 43.0435 5.07621 42.3007C4.72863 41.5812 4.85848 40.5096 4.9957 39.375C5.12977 38.2685 5.26828 37.1242 5.01551 36.0134C4.77187 34.9433 4.16203 33.9951 3.57223 33.0783C2.94047 32.0961 2.34375 31.1684 2.34375 30.3175C2.34375 29.4666 2.94047 28.539 3.57223 27.5568C4.16203 26.6401 4.77187 25.6919 5.01551 24.6217C5.26828 23.5109 5.12988 22.3667 4.99582 21.26C4.85836 20.1254 4.72875 19.0537 5.07621 18.3344C5.43516 17.5917 6.36715 17.0201 7.35398 16.4151C8.29488 15.8382 9.26801 15.2415 9.96598 14.3687C10.6689 13.4898 11.0379 12.4054 11.3948 11.3569C11.7661 10.2666 12.1166 9.23679 12.7555 8.72737C13.3893 8.22206 14.4697 8.10897 15.6137 7.98909C16.7193 7.87331 17.8624 7.75355 18.8817 7.26253C19.8802 6.78159 20.6743 5.9723 21.4424 5.18972C22.2568 4.35956 23.0264 3.57558 23.8437 3.39007C24.6111 3.21605 25.6208 3.57851 26.6902 3.9623C27.7493 4.34233 28.8445 4.7355 30 4.7355C31.1555 4.7355 32.2507 4.34245 33.3098 3.9623C34.3793 3.57862 35.3889 3.21558 36.1562 3.39007C36.9737 3.57558 37.743 4.35956 38.5576 5.1896C39.3258 5.9723 40.1198 6.78159 41.1184 7.26241C42.1376 7.75343 43.2807 7.87319 44.3863 7.98898C45.5303 8.10874 46.6106 8.22194 47.2444 8.72737C47.8835 9.23691 48.2341 10.2669 48.6053 11.3572C48.9622 12.4055 49.3312 13.4898 50.034 14.3685C50.7321 15.2415 51.7051 15.8381 52.646 16.4151C53.6327 17.02 54.5648 17.5916 54.9238 18.3344C55.2714 19.0538 55.1415 20.1255 55.0043 21.2601C54.8702 22.3666 54.7317 23.5108 54.9845 24.6216C55.2281 25.6918 55.838 26.6399 56.4278 27.5567C57.0595 28.5391 57.6562 29.4667 57.6562 30.3175C57.6562 31.1684 57.0595 32.0961 56.4278 33.0782Z" fill="#AA0630"/>
</svg>
