<svg width="54" height="60" viewBox="0 0 54 60" fill="none" xmlns="http://www.w3.org/2000/svg">
<path d="M49.9971 60L51.4869 59.9981C52.393 59.9968 53.1202 59.2539 53.1021 58.3481L53.0871 57.5958C52.9724 51.8466 50.6701 46.4413 46.6039 42.3751L46.1776 41.9488C47.1343 40.532 47.7834 38.9302 48.0836 37.2223C48.1676 36.7442 47.8482 36.2886 47.3702 36.2045C46.8923 36.1204 46.4365 36.4398 46.3524 36.918C46.031 38.7468 45.2413 40.4375 44.0493 41.854C43.0823 40.7072 42.3973 39.4072 41.9957 38.0432C41.9855 37.9462 41.9592 37.8507 41.9169 37.761C41.4862 36.1307 41.4553 34.4187 41.8273 32.7747C41.9078 32.5109 41.9794 32.2441 42.042 31.9746C42.4483 30.6692 43.117 29.424 44.0496 28.3176C45.1971 29.6829 45.9779 31.3145 46.3185 33.0686C46.4109 33.5451 46.872 33.8559 47.3487 33.764C47.8252 33.6714 48.1366 33.2101 48.0441 32.7337C47.605 30.4719 46.5395 28.3851 44.9628 26.6988C44.4704 26.1722 43.6314 26.1704 43.1373 26.6988C42.8304 27.0271 42.5434 27.3695 42.2769 27.7243C41.9731 25.1365 40.858 22.7194 39.0541 20.7902C38.5609 20.2626 37.7219 20.2627 37.2287 20.7901C37.0934 20.9254 36.6967 21.3782 36.3684 21.8157C36.0645 19.2279 34.9495 16.8107 33.1456 14.8815C32.6524 14.354 31.8133 14.3541 31.3202 14.8814C31.1863 15.0154 30.7958 15.4594 30.46 15.9068C30.1397 13.1746 28.9199 10.6462 26.9453 8.67161C23.9011 5.62741 20.6147 2.76953 17.1772 0.177306C16.7895 -0.114951 16.2384 -0.0376095 15.9463 0.349917C15.654 0.737444 15.7314 1.28856 16.1189 1.58082C19.2661 3.95402 22.2841 6.55433 25.1003 9.31823C24.4009 10.1252 23.8241 11.0022 23.37 11.9249C20.5441 9.1073 17.6077 6.39004 14.6024 3.81141C14.0601 3.34596 14.0391 3.32604 13.9652 3.27987C13.6005 3.05218 13.1163 3.12178 12.8313 3.4567C12.5168 3.82653 12.5617 4.38116 12.9314 4.69556C16.5396 7.76402 19.5628 10.6033 22.6622 13.7025C22.4676 14.3305 22.3244 14.9711 22.2325 15.6177C20.0702 12.5798 16.5622 10.5633 12.5858 10.4453L9.83374 7.69324C9.49051 7.35001 8.934 7.35001 8.59089 7.69324C8.24766 8.03648 8.24766 8.59298 8.59089 8.9361L11.343 11.6882C11.4608 15.6609 13.4739 19.1661 16.5071 21.329C15.8555 21.4213 15.2162 21.5652 14.5942 21.7586C11.4516 18.6159 8.62136 15.5948 5.59333 12.034C5.27892 11.6641 4.72417 11.6193 4.35446 11.9338C3.98463 12.2482 3.93974 12.8029 4.25427 13.1726C6.96391 16.3591 9.84441 19.4856 12.8184 22.4685C11.8882 22.9284 11.014 23.5092 10.2154 24.2026C7.45139 21.3861 4.85132 18.3681 2.47823 15.2213C2.18597 14.8338 1.63497 14.7565 1.24733 15.0486C0.859801 15.3409 0.782577 15.892 1.07472 16.2795C3.83873 19.9449 7.04242 23.5654 9.57512 26.0537C11.5488 28.0248 14.0749 29.2424 16.804 29.562C16.3629 29.8933 15.9086 30.2925 15.7787 30.4223C15.2514 30.9155 15.2513 31.7544 15.7787 32.2477C17.708 34.0518 20.1249 35.1668 22.7127 35.4706C22.3578 35.7371 22.0155 36.0242 21.6874 36.3311C21.16 36.8242 21.1599 37.6631 21.6874 38.1565C22.5419 38.9556 23.5014 39.6263 24.5391 40.15C24.9724 40.3687 25.501 40.1947 25.7198 39.7613C25.9385 39.328 25.7644 38.7995 25.3311 38.5807C24.6079 38.2158 23.9288 37.7672 23.3061 37.2435C24.4125 36.3111 25.6574 35.6424 26.9627 35.236C27.2326 35.1733 27.4999 35.1016 27.7642 35.0211C29.4079 34.6494 31.1195 34.6801 32.7495 35.1109C32.8395 35.1533 32.9352 35.1797 33.0324 35.1898C34.3962 35.5916 35.6961 36.2765 36.8426 37.2434C35.7133 38.1929 34.4121 38.8845 33.0214 39.2891C32.8719 39.326 32.7231 39.3657 32.5754 39.4082C31.4224 39.6891 30.2153 39.7756 28.9993 39.6516C28.5165 39.6028 28.085 39.954 28.0357 40.4368C27.9927 40.858 28.2547 41.2401 28.6428 41.3634C28.1921 41.7003 27.7295 42.1065 27.596 42.24C27.0687 42.7331 27.0686 43.572 27.596 44.0654C31.9141 48.1032 38.2794 48.3655 42.8462 45.2806L43.2722 45.7065C46.6453 49.0796 48.4585 53.5694 48.3777 58.3488C48.3625 59.2567 49.0878 60 49.9971 60ZM33.5825 33.5303L32.421 32.3689C32.7089 32.1073 32.9922 31.8253 33.2665 31.5234L34.4278 32.6847C34.5613 33.1349 34.7205 33.5763 34.9048 34.0071C34.474 33.8231 34.0326 33.6639 33.5825 33.5303ZM27.6738 27.6216L26.5124 26.4602C26.8076 26.1919 27.0893 25.9102 27.3579 25.6148L28.5192 26.776C28.6526 27.2263 28.8119 27.6677 28.9961 28.0985C28.5653 27.9145 28.1239 27.7552 27.6738 27.6216ZM39.4911 39.4389L38.3296 38.2774C38.6249 38.0092 38.9066 37.7276 39.1752 37.432L40.3365 38.5933C40.4699 39.0436 40.6292 39.485 40.8134 39.9158C40.3826 39.7317 39.9412 39.5725 39.4911 39.4389ZM38.141 22.4085C40.3312 25.0067 41.0668 28.3699 40.3652 31.4806C40.2831 31.749 40.2103 32.0205 40.1467 32.2947C39.7304 33.6292 39.0506 34.8672 38.141 35.9457C37.1741 34.7993 36.489 33.4997 36.0871 32.136C36.0769 32.0381 36.0505 31.9415 36.0075 31.8507C35.5773 30.2223 35.5463 28.5125 35.9172 26.8703C35.9986 26.6038 36.071 26.3343 36.1341 26.0619C36.5406 24.7579 37.2092 23.514 38.141 22.4085ZM32.2324 16.4998C34.4225 19.098 35.1581 22.4612 34.4565 25.572C34.3745 25.8403 34.3016 26.1118 34.2381 26.3861C33.8219 27.7202 33.1423 28.9582 32.2324 30.037C31.2655 28.8906 30.5803 27.5911 30.1785 26.2274C30.1683 26.1294 30.1418 26.0329 30.0988 25.942C29.6704 24.3202 29.6379 22.6177 30.004 20.9817C30.0893 20.7036 30.1649 20.4221 30.2303 20.1376C30.6374 18.8393 31.3043 17.6009 32.2324 16.4998ZM26.3241 10.5917C28.5786 13.2698 29.2477 16.7453 28.4866 19.8705C28.4451 20.0151 28.4063 20.1607 28.3702 20.3069C27.9717 21.6816 27.287 22.9836 26.3241 24.1275C23.0555 20.2374 23.0394 14.5008 26.3241 10.5917ZM13.1348 12.2372C18.2096 12.6777 22.2651 16.7332 22.7056 21.8079C22.2748 21.7705 21.8513 21.707 21.4368 21.6191C21.2521 21.57 21.066 21.5252 20.8787 21.4846C16.685 20.3512 13.5209 16.6858 13.1348 12.2372ZM11.489 25.4262C13.3816 23.8327 15.7522 22.9638 18.2573 22.9638C19.0119 22.9638 19.7544 23.0427 20.4753 23.1965C20.6531 23.2437 20.8324 23.287 21.0132 23.3263C22.4805 23.7215 23.8456 24.433 25.0255 25.4263C23.8699 26.3992 22.5736 27.071 21.2378 27.4631C21.0691 27.5042 20.9013 27.549 20.7348 27.5973C17.5831 28.3537 14.1313 27.6509 11.489 25.4262ZM17.3974 31.3349C18.4983 30.4068 19.7367 29.7399 21.0351 29.3329C21.3196 29.2675 21.6012 29.1919 21.8793 29.1065C23.5154 28.7404 25.2181 28.773 26.84 29.2014C26.9306 29.2443 27.027 29.2708 27.1247 29.2809C28.4884 29.6827 29.788 30.3679 30.9346 31.3347C30.6147 31.6046 30.62 31.5836 30.5479 31.6457C29.5497 32.4113 28.4487 32.9748 27.2993 33.3355C27.0149 33.401 26.7334 33.4766 26.4552 33.562C23.3484 34.2582 19.9916 33.5216 17.3974 31.3349ZM29.2147 43.1521C30.3184 42.2217 31.5601 41.5539 32.862 41.1471C33.136 41.0836 33.4073 41.0106 33.6757 40.9285C35.3183 40.5575 37.0286 40.5884 38.6573 41.0187C38.7479 41.0616 38.8442 41.0881 38.942 41.0981C40.3056 41.5 41.6053 42.1851 42.7519 43.152C42.4346 43.4196 42.4363 43.4019 42.3653 43.463C38.4741 46.4475 33.0225 46.362 29.2147 43.1521ZM44.5152 44.4631L44.2383 44.1862C44.5302 43.9209 44.8132 43.6385 45.0838 43.3407L45.3611 43.6179C49.1044 47.3614 51.2241 52.3378 51.3297 57.6307L51.3419 58.2405L50.1372 58.2421C50.1898 53.0328 48.1963 48.1443 44.5152 44.4631Z" fill="#AA0630"/>
</svg>
