<svg width="22" height="22" viewBox="0 0 22 22" fill="none" xmlns="http://www.w3.org/2000/svg">
<mask id="path-1-outside-1_1_1924" maskUnits="userSpaceOnUse" x="0" y="0" width="22" height="22" fill="black">
<rect fill="white" width="22" height="22"/>
<path fill-rule="evenodd" clip-rule="evenodd" d="M2.00494 1.04254C1.67383 1.12057 1.30768 1.40509 1.15765 1.70098C1.00707 1.99801 0.993635 2.20338 1.00679 4.00793L1.01953 5.74661L1.14789 6.00724C1.30241 6.32102 1.5466 6.5495 1.84796 6.66225C2.05587 6.74004 2.12604 6.74238 3.94294 6.73191L5.82282 6.72106L6.00949 6.62569C6.4173 6.41732 6.6841 6.03575 6.74338 5.57604C6.79317 5.18998 6.78805 2.38793 6.73705 2.112C6.66293 1.71118 6.4453 1.39232 6.09923 1.17742C5.83544 1.01368 5.6699 1.00083 3.87026 1.00443C2.92522 1.00634 2.08586 1.02348 2.00494 1.04254ZM9.08329 1.05566C8.71695 1.15684 8.41176 1.42532 8.23635 1.8006L8.12685 2.03491V3.87032C8.12685 5.69135 8.12755 5.70744 8.21604 5.92632C8.32304 6.19094 8.60034 6.48581 8.87163 6.62343L9.06408 6.72106H10.9971H12.9301L13.1244 6.62546C13.4963 6.44246 13.7556 6.10631 13.843 5.69405C13.8995 5.42756 13.903 2.38442 13.8472 2.08997C13.7508 1.58207 13.3874 1.18508 12.8999 1.05531C12.6221 0.981348 9.35122 0.981661 9.08329 1.05566ZM16.2104 1.05391C15.7791 1.1932 15.482 1.46098 15.3233 1.85344C15.2349 2.07197 15.2342 2.09009 15.2342 3.87032C15.2342 5.84194 15.2307 5.80909 15.4762 6.18184C15.6177 6.3967 15.9051 6.61339 16.1714 6.70586C16.2959 6.74909 16.6918 6.76011 18.124 6.76011C19.9088 6.76011 19.9218 6.75952 20.143 6.67013C20.4554 6.54392 20.7223 6.29145 20.8611 5.9908L20.9747 5.74478L20.9874 4.007C21.0006 2.20342 20.9872 1.99801 20.8366 1.70098C20.7305 1.49186 20.4539 1.23444 20.2132 1.12088L19.9984 1.01958L18.1825 1.0115C16.7867 1.00529 16.3305 1.01509 16.2104 1.05391ZM5.58676 2.03964C5.75503 2.10419 5.76425 2.20127 5.76425 3.90527V5.52562L5.67002 5.6352L5.57583 5.74478L3.96153 5.75606C3.0737 5.76227 2.30728 5.75743 2.25843 5.74532C2.20953 5.73318 2.13487 5.68858 2.09246 5.64617C2.01807 5.57178 2.01533 5.50977 2.01533 3.88809V2.20709L2.1112 2.11126L2.20703 2.01539H3.8653C4.77735 2.01539 5.552 2.02632 5.58676 2.03964ZM12.7757 2.11126L12.8716 2.20709V3.86637V5.52562L12.7773 5.6352L12.6831 5.74478H10.9971H9.31115L9.21571 5.63383L9.12027 5.52285L9.1312 3.84376L9.14218 2.16464L9.23438 2.09001C9.32193 2.01913 9.41081 2.01539 11.0032 2.01539H12.6799L12.7757 2.11126ZM19.883 2.11126L19.9789 2.20709V3.88071C19.9789 5.49922 19.9763 5.55706 19.9009 5.63797C19.8581 5.68401 19.7658 5.73212 19.6959 5.74489C19.626 5.75766 18.862 5.76286 17.9981 5.75645L16.4273 5.74478L16.3384 5.65586L16.2495 5.56694L16.2382 3.95713C16.232 3.07172 16.2368 2.30733 16.249 2.25848C16.2611 2.20959 16.3057 2.13492 16.3481 2.09251C16.4225 2.01812 16.4845 2.01539 18.1062 2.01539H19.7872L19.883 2.11126ZM2.09078 8.14678C1.84601 8.18821 1.55472 8.34442 1.3877 8.52382C1.00922 8.93038 1 8.98915 1 10.9972C1 12.3428 1.01109 12.7025 1.05807 12.8829C1.16331 13.2869 1.4068 13.5739 1.80055 13.7579L2.03486 13.8674H3.85074C5.18196 13.8674 5.70891 13.8545 5.82513 13.8191C6.20428 13.7036 6.5509 13.3633 6.69074 12.9692C6.75326 12.7932 6.76005 12.5995 6.76005 10.9972C6.76005 9.37353 6.75388 9.2026 6.68832 9.01453C6.53578 8.577 6.16671 8.25479 5.70778 8.15857C5.4425 8.10296 2.40803 8.09304 2.09078 8.14678ZM9.16061 8.15916C8.62405 8.27791 8.25173 8.66834 8.14993 9.21897C8.09264 9.52888 8.09264 12.4654 8.14993 12.7754C8.25739 13.3567 8.65298 13.7452 9.24191 13.8477C9.41495 13.8779 10.0406 13.8882 11.1758 13.8798L12.8539 13.8674L13.1124 13.7401C13.4132 13.592 13.6198 13.3802 13.7645 13.0716L13.8674 12.8521V10.9972V9.14223L13.7645 8.92276C13.6198 8.61414 13.4132 8.40233 13.1124 8.25421L12.8539 8.1269L11.1152 8.11913C9.86236 8.11354 9.31615 8.12475 9.16061 8.15916ZM16.269 8.16029C15.9879 8.22429 15.8281 8.31192 15.6282 8.51183C15.4135 8.72649 15.2955 8.97833 15.2476 9.32405C15.2247 9.48959 15.2149 10.2644 15.2239 11.2091C15.2371 12.6069 15.2477 12.8356 15.3062 12.9888C15.4526 13.3721 15.8004 13.7067 16.1691 13.8191C16.2853 13.8545 16.8123 13.8674 18.1435 13.8674H19.9594L20.1937 13.7579C20.5874 13.5739 20.8309 13.2869 20.9362 12.8829C21.0213 12.556 21.0213 9.43828 20.9362 9.11142C20.8309 8.7074 20.5874 8.42041 20.1937 8.2364L19.9594 8.1269L18.2216 8.11913C16.9457 8.11347 16.4267 8.1244 16.269 8.16029ZM5.63514 9.21694L5.74472 9.31113L5.75573 10.9435C5.76331 12.0657 5.75335 12.6084 5.72383 12.6797C5.7002 12.7367 5.63729 12.8032 5.58403 12.8275C5.51698 12.8581 4.98291 12.8716 3.84711 12.8716H2.20703L2.1112 12.7758L2.01533 12.6799V10.9972V9.31441L2.1112 9.21858L2.20703 9.12271H3.86632H5.52557L5.63514 9.21694ZM12.6887 9.16812C12.8707 9.26513 12.8691 9.24814 12.8691 10.9972C12.8691 12.7462 12.8707 12.7292 12.6887 12.8262C12.5714 12.8886 9.44123 12.8906 9.30451 12.8283C9.25218 12.8044 9.18986 12.7421 9.166 12.6898C9.10547 12.5568 9.10559 9.43719 9.16615 9.30425C9.19009 9.25173 9.24719 9.19058 9.29307 9.1684C9.41651 9.10861 12.5765 9.10837 12.6887 9.16812ZM19.883 9.21858L19.9789 9.31441V10.9972V12.6799L19.883 12.7758L19.7872 12.8716H18.1279H16.4687L16.3591 12.7774L16.2495 12.6831V10.9972V9.31121L16.3591 9.21694L16.4687 9.12271H18.1279H19.7872L19.883 9.21858ZM2.12745 15.2532C1.67887 15.3321 1.31682 15.6058 1.13219 16.0056L1.01953 16.2496L1.00679 17.9873C0.993283 19.8372 1.00644 20.0174 1.17667 20.3131C1.27879 20.4906 1.55765 20.7623 1.72823 20.8505C1.98249 20.982 2.27861 20.9995 4.02741 20.987L5.74656 20.9747L6.00719 20.8464C6.3187 20.693 6.54488 20.4526 6.6709 20.1409C6.75935 19.9221 6.76005 19.9058 6.75935 18.1045C6.75876 16.4914 6.75131 16.27 6.69261 16.1222C6.53957 15.7368 6.2552 15.4527 5.87207 15.3025C5.72691 15.2456 5.48894 15.2362 4.00694 15.2293C3.07264 15.2249 2.22687 15.2357 2.12745 15.2532ZM9.02502 15.3015C8.83695 15.3682 8.52665 15.59 8.4043 15.7452C8.34214 15.824 8.25427 15.9786 8.20905 16.0886C8.12946 16.2822 8.12685 16.3474 8.12685 18.124V19.9594L8.23635 20.1937C8.4159 20.5779 8.71796 20.8388 9.10164 20.941C9.39082 21.018 12.6095 21.0163 12.8999 20.939C13.3932 20.8077 13.7535 20.4095 13.8496 19.8894C13.8756 19.749 13.8864 19.0451 13.879 17.9779C13.8688 16.5213 13.8584 16.2654 13.8028 16.1205C13.7083 15.874 13.5395 15.6483 13.3402 15.5022C12.9993 15.2523 13.01 15.2534 10.9804 15.2568C9.7884 15.2588 9.10098 15.2745 9.02502 15.3015ZM16.1323 15.302C15.8252 15.4124 15.5213 15.6832 15.3744 15.9774C15.2326 16.2613 15.2073 16.6568 15.2228 18.3507C15.2367 19.8729 15.2398 19.9271 15.3256 20.143C15.4493 20.4543 15.702 20.7219 16.0035 20.8611L16.2495 20.9747H18.124H19.9984L20.2132 20.8734C20.4539 20.7599 20.7305 20.5025 20.8366 20.2933C20.9872 19.9963 21.0006 19.7909 20.9874 17.9864L20.9747 16.2477L20.8463 15.9871C20.6922 15.6742 20.4477 15.4449 20.1492 15.3331C19.9463 15.2573 19.8555 15.2539 18.0932 15.2568C16.881 15.2589 16.2094 15.2743 16.1323 15.302ZM5.6558 16.3385L5.74472 16.4274L5.75601 18.0372C5.76222 18.9226 5.75737 19.687 5.74527 19.7358C5.73312 19.7847 5.68853 19.8594 5.64612 19.9018C5.57173 19.9762 5.50971 19.9789 3.88803 19.9789H2.20703L2.1112 19.8831L2.01533 19.7872L2.01658 18.116C2.01791 16.3293 2.01541 16.3528 2.21414 16.272C2.27147 16.2486 2.94432 16.2368 3.93755 16.2416L5.56688 16.2496L5.6558 16.3385ZM12.6897 16.2734C12.742 16.2972 12.8044 16.3596 12.8282 16.4119C12.8578 16.4768 12.8716 17.0283 12.8716 18.1472V19.7872L12.7757 19.8831L12.6799 19.9789H11.0216C10.1096 19.9789 9.3349 19.968 9.30014 19.9547C9.13195 19.8901 9.12265 19.7926 9.12265 18.0956C9.12265 16.3524 9.12257 16.3532 9.33185 16.2688C9.46103 16.2166 12.5745 16.2209 12.6897 16.2734ZM19.8199 16.2872C19.8807 16.3186 19.9413 16.3727 19.9546 16.4075C19.968 16.4423 19.9789 17.2169 19.9789 18.129V19.7872L19.883 19.8831L19.7872 19.9789L18.116 19.9777C16.3153 19.9764 16.3513 19.9805 16.2705 19.7682C16.2081 19.604 16.2169 16.5511 16.2801 16.4261C16.3767 16.2351 16.4133 16.2312 18.1161 16.2306C19.4389 16.2301 19.7282 16.2397 19.8199 16.2872Z"/>
</mask>
<path fill-rule="evenodd" clip-rule="evenodd" d="M2.00494 1.04254C1.67383 1.12057 1.30768 1.40509 1.15765 1.70098C1.00707 1.99801 0.993635 2.20338 1.00679 4.00793L1.01953 5.74661L1.14789 6.00724C1.30241 6.32102 1.5466 6.5495 1.84796 6.66225C2.05587 6.74004 2.12604 6.74238 3.94294 6.73191L5.82282 6.72106L6.00949 6.62569C6.4173 6.41732 6.6841 6.03575 6.74338 5.57604C6.79317 5.18998 6.78805 2.38793 6.73705 2.112C6.66293 1.71118 6.4453 1.39232 6.09923 1.17742C5.83544 1.01368 5.6699 1.00083 3.87026 1.00443C2.92522 1.00634 2.08586 1.02348 2.00494 1.04254ZM9.08329 1.05566C8.71695 1.15684 8.41176 1.42532 8.23635 1.8006L8.12685 2.03491V3.87032C8.12685 5.69135 8.12755 5.70744 8.21604 5.92632C8.32304 6.19094 8.60034 6.48581 8.87163 6.62343L9.06408 6.72106H10.9971H12.9301L13.1244 6.62546C13.4963 6.44246 13.7556 6.10631 13.843 5.69405C13.8995 5.42756 13.903 2.38442 13.8472 2.08997C13.7508 1.58207 13.3874 1.18508 12.8999 1.05531C12.6221 0.981348 9.35122 0.981661 9.08329 1.05566ZM16.2104 1.05391C15.7791 1.1932 15.482 1.46098 15.3233 1.85344C15.2349 2.07197 15.2342 2.09009 15.2342 3.87032C15.2342 5.84194 15.2307 5.80909 15.4762 6.18184C15.6177 6.3967 15.9051 6.61339 16.1714 6.70586C16.2959 6.74909 16.6918 6.76011 18.124 6.76011C19.9088 6.76011 19.9218 6.75952 20.143 6.67013C20.4554 6.54392 20.7223 6.29145 20.8611 5.9908L20.9747 5.74478L20.9874 4.007C21.0006 2.20342 20.9872 1.99801 20.8366 1.70098C20.7305 1.49186 20.4539 1.23444 20.2132 1.12088L19.9984 1.01958L18.1825 1.0115C16.7867 1.00529 16.3305 1.01509 16.2104 1.05391ZM5.58676 2.03964C5.75503 2.10419 5.76425 2.20127 5.76425 3.90527V5.52562L5.67002 5.6352L5.57583 5.74478L3.96153 5.75606C3.0737 5.76227 2.30728 5.75743 2.25843 5.74532C2.20953 5.73318 2.13487 5.68858 2.09246 5.64617C2.01807 5.57178 2.01533 5.50977 2.01533 3.88809V2.20709L2.1112 2.11126L2.20703 2.01539H3.8653C4.77735 2.01539 5.552 2.02632 5.58676 2.03964ZM12.7757 2.11126L12.8716 2.20709V3.86637V5.52562L12.7773 5.6352L12.6831 5.74478H10.9971H9.31115L9.21571 5.63383L9.12027 5.52285L9.1312 3.84376L9.14218 2.16464L9.23438 2.09001C9.32193 2.01913 9.41081 2.01539 11.0032 2.01539H12.6799L12.7757 2.11126ZM19.883 2.11126L19.9789 2.20709V3.88071C19.9789 5.49922 19.9763 5.55706 19.9009 5.63797C19.8581 5.68401 19.7658 5.73212 19.6959 5.74489C19.626 5.75766 18.862 5.76286 17.9981 5.75645L16.4273 5.74478L16.3384 5.65586L16.2495 5.56694L16.2382 3.95713C16.232 3.07172 16.2368 2.30733 16.249 2.25848C16.2611 2.20959 16.3057 2.13492 16.3481 2.09251C16.4225 2.01812 16.4845 2.01539 18.1062 2.01539H19.7872L19.883 2.11126ZM2.09078 8.14678C1.84601 8.18821 1.55472 8.34442 1.3877 8.52382C1.00922 8.93038 1 8.98915 1 10.9972C1 12.3428 1.01109 12.7025 1.05807 12.8829C1.16331 13.2869 1.4068 13.5739 1.80055 13.7579L2.03486 13.8674H3.85074C5.18196 13.8674 5.70891 13.8545 5.82513 13.8191C6.20428 13.7036 6.5509 13.3633 6.69074 12.9692C6.75326 12.7932 6.76005 12.5995 6.76005 10.9972C6.76005 9.37353 6.75388 9.2026 6.68832 9.01453C6.53578 8.577 6.16671 8.25479 5.70778 8.15857C5.4425 8.10296 2.40803 8.09304 2.09078 8.14678ZM9.16061 8.15916C8.62405 8.27791 8.25173 8.66834 8.14993 9.21897C8.09264 9.52888 8.09264 12.4654 8.14993 12.7754C8.25739 13.3567 8.65298 13.7452 9.24191 13.8477C9.41495 13.8779 10.0406 13.8882 11.1758 13.8798L12.8539 13.8674L13.1124 13.7401C13.4132 13.592 13.6198 13.3802 13.7645 13.0716L13.8674 12.8521V10.9972V9.14223L13.7645 8.92276C13.6198 8.61414 13.4132 8.40233 13.1124 8.25421L12.8539 8.1269L11.1152 8.11913C9.86236 8.11354 9.31615 8.12475 9.16061 8.15916ZM16.269 8.16029C15.9879 8.22429 15.8281 8.31192 15.6282 8.51183C15.4135 8.72649 15.2955 8.97833 15.2476 9.32405C15.2247 9.48959 15.2149 10.2644 15.2239 11.2091C15.2371 12.6069 15.2477 12.8356 15.3062 12.9888C15.4526 13.3721 15.8004 13.7067 16.1691 13.8191C16.2853 13.8545 16.8123 13.8674 18.1435 13.8674H19.9594L20.1937 13.7579C20.5874 13.5739 20.8309 13.2869 20.9362 12.8829C21.0213 12.556 21.0213 9.43828 20.9362 9.11142C20.8309 8.7074 20.5874 8.42041 20.1937 8.2364L19.9594 8.1269L18.2216 8.11913C16.9457 8.11347 16.4267 8.1244 16.269 8.16029ZM5.63514 9.21694L5.74472 9.31113L5.75573 10.9435C5.76331 12.0657 5.75335 12.6084 5.72383 12.6797C5.7002 12.7367 5.63729 12.8032 5.58403 12.8275C5.51698 12.8581 4.98291 12.8716 3.84711 12.8716H2.20703L2.1112 12.7758L2.01533 12.6799V10.9972V9.31441L2.1112 9.21858L2.20703 9.12271H3.86632H5.52557L5.63514 9.21694ZM12.6887 9.16812C12.8707 9.26513 12.8691 9.24814 12.8691 10.9972C12.8691 12.7462 12.8707 12.7292 12.6887 12.8262C12.5714 12.8886 9.44123 12.8906 9.30451 12.8283C9.25218 12.8044 9.18986 12.7421 9.166 12.6898C9.10547 12.5568 9.10559 9.43719 9.16615 9.30425C9.19009 9.25173 9.24719 9.19058 9.29307 9.1684C9.41651 9.10861 12.5765 9.10837 12.6887 9.16812ZM19.883 9.21858L19.9789 9.31441V10.9972V12.6799L19.883 12.7758L19.7872 12.8716H18.1279H16.4687L16.3591 12.7774L16.2495 12.6831V10.9972V9.31121L16.3591 9.21694L16.4687 9.12271H18.1279H19.7872L19.883 9.21858ZM2.12745 15.2532C1.67887 15.3321 1.31682 15.6058 1.13219 16.0056L1.01953 16.2496L1.00679 17.9873C0.993283 19.8372 1.00644 20.0174 1.17667 20.3131C1.27879 20.4906 1.55765 20.7623 1.72823 20.8505C1.98249 20.982 2.27861 20.9995 4.02741 20.987L5.74656 20.9747L6.00719 20.8464C6.3187 20.693 6.54488 20.4526 6.6709 20.1409C6.75935 19.9221 6.76005 19.9058 6.75935 18.1045C6.75876 16.4914 6.75131 16.27 6.69261 16.1222C6.53957 15.7368 6.2552 15.4527 5.87207 15.3025C5.72691 15.2456 5.48894 15.2362 4.00694 15.2293C3.07264 15.2249 2.22687 15.2357 2.12745 15.2532ZM9.02502 15.3015C8.83695 15.3682 8.52665 15.59 8.4043 15.7452C8.34214 15.824 8.25427 15.9786 8.20905 16.0886C8.12946 16.2822 8.12685 16.3474 8.12685 18.124V19.9594L8.23635 20.1937C8.4159 20.5779 8.71796 20.8388 9.10164 20.941C9.39082 21.018 12.6095 21.0163 12.8999 20.939C13.3932 20.8077 13.7535 20.4095 13.8496 19.8894C13.8756 19.749 13.8864 19.0451 13.879 17.9779C13.8688 16.5213 13.8584 16.2654 13.8028 16.1205C13.7083 15.874 13.5395 15.6483 13.3402 15.5022C12.9993 15.2523 13.01 15.2534 10.9804 15.2568C9.7884 15.2588 9.10098 15.2745 9.02502 15.3015ZM16.1323 15.302C15.8252 15.4124 15.5213 15.6832 15.3744 15.9774C15.2326 16.2613 15.2073 16.6568 15.2228 18.3507C15.2367 19.8729 15.2398 19.9271 15.3256 20.143C15.4493 20.4543 15.702 20.7219 16.0035 20.8611L16.2495 20.9747H18.124H19.9984L20.2132 20.8734C20.4539 20.7599 20.7305 20.5025 20.8366 20.2933C20.9872 19.9963 21.0006 19.7909 20.9874 17.9864L20.9747 16.2477L20.8463 15.9871C20.6922 15.6742 20.4477 15.4449 20.1492 15.3331C19.9463 15.2573 19.8555 15.2539 18.0932 15.2568C16.881 15.2589 16.2094 15.2743 16.1323 15.302ZM5.6558 16.3385L5.74472 16.4274L5.75601 18.0372C5.76222 18.9226 5.75737 19.687 5.74527 19.7358C5.73312 19.7847 5.68853 19.8594 5.64612 19.9018C5.57173 19.9762 5.50971 19.9789 3.88803 19.9789H2.20703L2.1112 19.8831L2.01533 19.7872L2.01658 18.116C2.01791 16.3293 2.01541 16.3528 2.21414 16.272C2.27147 16.2486 2.94432 16.2368 3.93755 16.2416L5.56688 16.2496L5.6558 16.3385ZM12.6897 16.2734C12.742 16.2972 12.8044 16.3596 12.8282 16.4119C12.8578 16.4768 12.8716 17.0283 12.8716 18.1472V19.7872L12.7757 19.8831L12.6799 19.9789H11.0216C10.1096 19.9789 9.3349 19.968 9.30014 19.9547C9.13195 19.8901 9.12265 19.7926 9.12265 18.0956C9.12265 16.3524 9.12257 16.3532 9.33185 16.2688C9.46103 16.2166 12.5745 16.2209 12.6897 16.2734ZM19.8199 16.2872C19.8807 16.3186 19.9413 16.3727 19.9546 16.4075C19.968 16.4423 19.9789 17.2169 19.9789 18.129V19.7872L19.883 19.8831L19.7872 19.9789L18.116 19.9777C16.3153 19.9764 16.3513 19.9805 16.2705 19.7682C16.2081 19.604 16.2169 16.5511 16.2801 16.4261C16.3767 16.2351 16.4133 16.2312 18.1161 16.2306C19.4389 16.2301 19.7282 16.2397 19.8199 16.2872Z" fill="white"/>
<path fill-rule="evenodd" clip-rule="evenodd" d="M2.00494 1.04254C1.67383 1.12057 1.30768 1.40509 1.15765 1.70098C1.00707 1.99801 0.993635 2.20338 1.00679 4.00793L1.01953 5.74661L1.14789 6.00724C1.30241 6.32102 1.5466 6.5495 1.84796 6.66225C2.05587 6.74004 2.12604 6.74238 3.94294 6.73191L5.82282 6.72106L6.00949 6.62569C6.4173 6.41732 6.6841 6.03575 6.74338 5.57604C6.79317 5.18998 6.78805 2.38793 6.73705 2.112C6.66293 1.71118 6.4453 1.39232 6.09923 1.17742C5.83544 1.01368 5.6699 1.00083 3.87026 1.00443C2.92522 1.00634 2.08586 1.02348 2.00494 1.04254ZM9.08329 1.05566C8.71695 1.15684 8.41176 1.42532 8.23635 1.8006L8.12685 2.03491V3.87032C8.12685 5.69135 8.12755 5.70744 8.21604 5.92632C8.32304 6.19094 8.60034 6.48581 8.87163 6.62343L9.06408 6.72106H10.9971H12.9301L13.1244 6.62546C13.4963 6.44246 13.7556 6.10631 13.843 5.69405C13.8995 5.42756 13.903 2.38442 13.8472 2.08997C13.7508 1.58207 13.3874 1.18508 12.8999 1.05531C12.6221 0.981348 9.35122 0.981661 9.08329 1.05566ZM16.2104 1.05391C15.7791 1.1932 15.482 1.46098 15.3233 1.85344C15.2349 2.07197 15.2342 2.09009 15.2342 3.87032C15.2342 5.84194 15.2307 5.80909 15.4762 6.18184C15.6177 6.3967 15.9051 6.61339 16.1714 6.70586C16.2959 6.74909 16.6918 6.76011 18.124 6.76011C19.9088 6.76011 19.9218 6.75952 20.143 6.67013C20.4554 6.54392 20.7223 6.29145 20.8611 5.9908L20.9747 5.74478L20.9874 4.007C21.0006 2.20342 20.9872 1.99801 20.8366 1.70098C20.7305 1.49186 20.4539 1.23444 20.2132 1.12088L19.9984 1.01958L18.1825 1.0115C16.7867 1.00529 16.3305 1.01509 16.2104 1.05391ZM5.58676 2.03964C5.75503 2.10419 5.76425 2.20127 5.76425 3.90527V5.52562L5.67002 5.6352L5.57583 5.74478L3.96153 5.75606C3.0737 5.76227 2.30728 5.75743 2.25843 5.74532C2.20953 5.73318 2.13487 5.68858 2.09246 5.64617C2.01807 5.57178 2.01533 5.50977 2.01533 3.88809V2.20709L2.1112 2.11126L2.20703 2.01539H3.8653C4.77735 2.01539 5.552 2.02632 5.58676 2.03964ZM12.7757 2.11126L12.8716 2.20709V3.86637V5.52562L12.7773 5.6352L12.6831 5.74478H10.9971H9.31115L9.21571 5.63383L9.12027 5.52285L9.1312 3.84376L9.14218 2.16464L9.23438 2.09001C9.32193 2.01913 9.41081 2.01539 11.0032 2.01539H12.6799L12.7757 2.11126ZM19.883 2.11126L19.9789 2.20709V3.88071C19.9789 5.49922 19.9763 5.55706 19.9009 5.63797C19.8581 5.68401 19.7658 5.73212 19.6959 5.74489C19.626 5.75766 18.862 5.76286 17.9981 5.75645L16.4273 5.74478L16.3384 5.65586L16.2495 5.56694L16.2382 3.95713C16.232 3.07172 16.2368 2.30733 16.249 2.25848C16.2611 2.20959 16.3057 2.13492 16.3481 2.09251C16.4225 2.01812 16.4845 2.01539 18.1062 2.01539H19.7872L19.883 2.11126ZM2.09078 8.14678C1.84601 8.18821 1.55472 8.34442 1.3877 8.52382C1.00922 8.93038 1 8.98915 1 10.9972C1 12.3428 1.01109 12.7025 1.05807 12.8829C1.16331 13.2869 1.4068 13.5739 1.80055 13.7579L2.03486 13.8674H3.85074C5.18196 13.8674 5.70891 13.8545 5.82513 13.8191C6.20428 13.7036 6.5509 13.3633 6.69074 12.9692C6.75326 12.7932 6.76005 12.5995 6.76005 10.9972C6.76005 9.37353 6.75388 9.2026 6.68832 9.01453C6.53578 8.577 6.16671 8.25479 5.70778 8.15857C5.4425 8.10296 2.40803 8.09304 2.09078 8.14678ZM9.16061 8.15916C8.62405 8.27791 8.25173 8.66834 8.14993 9.21897C8.09264 9.52888 8.09264 12.4654 8.14993 12.7754C8.25739 13.3567 8.65298 13.7452 9.24191 13.8477C9.41495 13.8779 10.0406 13.8882 11.1758 13.8798L12.8539 13.8674L13.1124 13.7401C13.4132 13.592 13.6198 13.3802 13.7645 13.0716L13.8674 12.8521V10.9972V9.14223L13.7645 8.92276C13.6198 8.61414 13.4132 8.40233 13.1124 8.25421L12.8539 8.1269L11.1152 8.11913C9.86236 8.11354 9.31615 8.12475 9.16061 8.15916ZM16.269 8.16029C15.9879 8.22429 15.8281 8.31192 15.6282 8.51183C15.4135 8.72649 15.2955 8.97833 15.2476 9.32405C15.2247 9.48959 15.2149 10.2644 15.2239 11.2091C15.2371 12.6069 15.2477 12.8356 15.3062 12.9888C15.4526 13.3721 15.8004 13.7067 16.1691 13.8191C16.2853 13.8545 16.8123 13.8674 18.1435 13.8674H19.9594L20.1937 13.7579C20.5874 13.5739 20.8309 13.2869 20.9362 12.8829C21.0213 12.556 21.0213 9.43828 20.9362 9.11142C20.8309 8.7074 20.5874 8.42041 20.1937 8.2364L19.9594 8.1269L18.2216 8.11913C16.9457 8.11347 16.4267 8.1244 16.269 8.16029ZM5.63514 9.21694L5.74472 9.31113L5.75573 10.9435C5.76331 12.0657 5.75335 12.6084 5.72383 12.6797C5.7002 12.7367 5.63729 12.8032 5.58403 12.8275C5.51698 12.8581 4.98291 12.8716 3.84711 12.8716H2.20703L2.1112 12.7758L2.01533 12.6799V10.9972V9.31441L2.1112 9.21858L2.20703 9.12271H3.86632H5.52557L5.63514 9.21694ZM12.6887 9.16812C12.8707 9.26513 12.8691 9.24814 12.8691 10.9972C12.8691 12.7462 12.8707 12.7292 12.6887 12.8262C12.5714 12.8886 9.44123 12.8906 9.30451 12.8283C9.25218 12.8044 9.18986 12.7421 9.166 12.6898C9.10547 12.5568 9.10559 9.43719 9.16615 9.30425C9.19009 9.25173 9.24719 9.19058 9.29307 9.1684C9.41651 9.10861 12.5765 9.10837 12.6887 9.16812ZM19.883 9.21858L19.9789 9.31441V10.9972V12.6799L19.883 12.7758L19.7872 12.8716H18.1279H16.4687L16.3591 12.7774L16.2495 12.6831V10.9972V9.31121L16.3591 9.21694L16.4687 9.12271H18.1279H19.7872L19.883 9.21858ZM2.12745 15.2532C1.67887 15.3321 1.31682 15.6058 1.13219 16.0056L1.01953 16.2496L1.00679 17.9873C0.993283 19.8372 1.00644 20.0174 1.17667 20.3131C1.27879 20.4906 1.55765 20.7623 1.72823 20.8505C1.98249 20.982 2.27861 20.9995 4.02741 20.987L5.74656 20.9747L6.00719 20.8464C6.3187 20.693 6.54488 20.4526 6.6709 20.1409C6.75935 19.9221 6.76005 19.9058 6.75935 18.1045C6.75876 16.4914 6.75131 16.27 6.69261 16.1222C6.53957 15.7368 6.2552 15.4527 5.87207 15.3025C5.72691 15.2456 5.48894 15.2362 4.00694 15.2293C3.07264 15.2249 2.22687 15.2357 2.12745 15.2532ZM9.02502 15.3015C8.83695 15.3682 8.52665 15.59 8.4043 15.7452C8.34214 15.824 8.25427 15.9786 8.20905 16.0886C8.12946 16.2822 8.12685 16.3474 8.12685 18.124V19.9594L8.23635 20.1937C8.4159 20.5779 8.71796 20.8388 9.10164 20.941C9.39082 21.018 12.6095 21.0163 12.8999 20.939C13.3932 20.8077 13.7535 20.4095 13.8496 19.8894C13.8756 19.749 13.8864 19.0451 13.879 17.9779C13.8688 16.5213 13.8584 16.2654 13.8028 16.1205C13.7083 15.874 13.5395 15.6483 13.3402 15.5022C12.9993 15.2523 13.01 15.2534 10.9804 15.2568C9.7884 15.2588 9.10098 15.2745 9.02502 15.3015ZM16.1323 15.302C15.8252 15.4124 15.5213 15.6832 15.3744 15.9774C15.2326 16.2613 15.2073 16.6568 15.2228 18.3507C15.2367 19.8729 15.2398 19.9271 15.3256 20.143C15.4493 20.4543 15.702 20.7219 16.0035 20.8611L16.2495 20.9747H18.124H19.9984L20.2132 20.8734C20.4539 20.7599 20.7305 20.5025 20.8366 20.2933C20.9872 19.9963 21.0006 19.7909 20.9874 17.9864L20.9747 16.2477L20.8463 15.9871C20.6922 15.6742 20.4477 15.4449 20.1492 15.3331C19.9463 15.2573 19.8555 15.2539 18.0932 15.2568C16.881 15.2589 16.2094 15.2743 16.1323 15.302ZM5.6558 16.3385L5.74472 16.4274L5.75601 18.0372C5.76222 18.9226 5.75737 19.687 5.74527 19.7358C5.73312 19.7847 5.68853 19.8594 5.64612 19.9018C5.57173 19.9762 5.50971 19.9789 3.88803 19.9789H2.20703L2.1112 19.8831L2.01533 19.7872L2.01658 18.116C2.01791 16.3293 2.01541 16.3528 2.21414 16.272C2.27147 16.2486 2.94432 16.2368 3.93755 16.2416L5.56688 16.2496L5.6558 16.3385ZM12.6897 16.2734C12.742 16.2972 12.8044 16.3596 12.8282 16.4119C12.8578 16.4768 12.8716 17.0283 12.8716 18.1472V19.7872L12.7757 19.8831L12.6799 19.9789H11.0216C10.1096 19.9789 9.3349 19.968 9.30014 19.9547C9.13195 19.8901 9.12265 19.7926 9.12265 18.0956C9.12265 16.3524 9.12257 16.3532 9.33185 16.2688C9.46103 16.2166 12.5745 16.2209 12.6897 16.2734ZM19.8199 16.2872C19.8807 16.3186 19.9413 16.3727 19.9546 16.4075C19.968 16.4423 19.9789 17.2169 19.9789 18.129V19.7872L19.883 19.8831L19.7872 19.9789L18.116 19.9777C16.3153 19.9764 16.3513 19.9805 16.2705 19.7682C16.2081 19.604 16.2169 16.5511 16.2801 16.4261C16.3767 16.2351 16.4133 16.2312 18.1161 16.2306C19.4389 16.2301 19.7282 16.2397 19.8199 16.2872Z" stroke="white" stroke-width="0.4" mask="url(#path-1-outside-1_1_1924)"/>
</svg>
