<svg width="19" height="21" viewBox="0 0 19 21" fill="none" xmlns="http://www.w3.org/2000/svg">
<path d="M8.88056 0.918821L8.88057 0.918819C9.05243 0.891336 9.40722 0.896386 9.75369 0.918358L8.88056 0.918821ZM8.88056 0.918821C7.82167 1.08828 6.88087 1.58878 6.17084 2.36154M8.88056 0.918821L6.17084 2.36154M0.920344 17.4796L0.920285 17.4604L0.903901 12.091C0.899387 10.6143 0.898927 9.2571 0.901817 8.26004C0.903261 7.76154 0.905544 7.35288 0.908578 7.06427C0.910095 6.92002 0.911803 6.80542 0.913697 6.72447C0.914643 6.68407 0.915646 6.65153 0.916721 6.62767C0.917255 6.61581 0.917836 6.60543 0.918491 6.597L0.918517 6.59666C0.918952 6.59105 0.919934 6.5784 0.92276 6.56699C0.937579 6.50719 0.979656 6.44716 1.02263 6.39926C1.06792 6.34878 1.12534 6.29949 1.1856 6.26298C1.1856 6.26298 1.18561 6.26298 1.18561 6.26298L0.920344 17.4796ZM0.920344 17.4796L0.92753 17.4975M0.920344 17.4796L0.92753 17.4975M0.92753 17.4975L1.0858 17.8903C1.4127 18.7016 1.99213 19.3366 2.75764 19.7204C2.77253 19.7279 2.78713 19.7352 2.8015 19.7425C2.96611 19.8253 3.10045 19.8929 3.28358 19.9438C3.48194 19.999 3.73398 20.0338 4.14649 20.0565C4.93789 20.1001 6.34463 20.1001 9.14766 20.1L9.5 20.1C9.62125 20.1 9.74004 20.1 9.85641 20.1C12.6539 20.1001 14.058 20.1001 14.8488 20.0568C15.2613 20.0342 15.5135 19.9996 15.7125 19.9449C15.8961 19.8944 16.0314 19.8273 16.1973 19.745C16.2119 19.7378 16.2267 19.7304 16.2418 19.723C16.9975 19.3497 17.587 18.7026 17.9142 17.8903L18.0725 17.4975L18.0797 17.4796M0.92753 17.4975L18.0797 17.4796M18.0797 17.4796L18.0797 17.4604M18.0797 17.4796L18.0797 17.4604M18.0797 17.4604L18.0961 12.091C18.1006 10.6143 18.1011 9.2571 18.0982 8.26004C18.0967 7.76154 18.0945 7.35288 18.0914 7.06427C18.0899 6.92002 18.0882 6.80542 18.0863 6.72447C18.0854 6.68407 18.0844 6.65153 18.0833 6.62768C18.0827 6.61581 18.0822 6.60543 18.0815 6.597C18.0811 6.59157 18.0801 6.57863 18.0772 6.56699L17.9802 6.59104M18.0797 17.4604L17.9802 6.59104M17.9802 6.59104L18.0772 6.56699C18.0624 6.50719 18.0203 6.44716 17.9774 6.39926M17.9802 6.59104L17.9774 6.39926M6.38058 7.53535V8.17421C6.38058 8.37916 6.37447 8.5818 6.36455 8.74357C6.35959 8.82437 6.35364 8.89588 6.34688 8.95282L6.38058 7.53535ZM6.38058 7.53535H9.5H12.6194V8.16941C12.6194 8.37334 12.6264 8.57893 12.6378 8.74634C12.6435 8.82999 12.6503 8.90494 12.658 8.96583C12.6654 9.02389 12.6745 9.07731 12.6869 9.11267L12.6869 9.11268C12.7815 9.38235 13.0246 9.53459 13.3248 9.53459C13.4549 9.53459 13.5717 9.52165 13.6706 9.47814C13.7738 9.43269 13.85 9.35734 13.9035 9.24862C13.955 9.1437 13.9848 9.00881 14.0026 8.84173C14.0204 8.67366 14.0267 8.46532 14.0267 8.20934V7.53535H15.3927H16.7587V12.199C16.7587 14.5039 16.7577 15.6962 16.7429 16.3565C16.7281 17.0163 16.6993 17.1339 16.6481 17.2953L16.7434 17.3256L16.6481 17.2953C16.4515 17.9146 16.0219 18.364 15.4071 18.5926C15.2718 18.6429 15.1818 18.6723 14.4238 18.6871C13.6677 18.7019 12.2601 18.7024 9.5 18.7024C6.72197 18.7024 5.3149 18.702 4.56276 18.6871C3.80939 18.6721 3.72634 18.6422 3.58668 18.5903L3.55184 18.684L3.58668 18.5903C2.98303 18.3659 2.51204 17.8592 2.32856 17.2358C2.29306 17.1152 2.26976 16.9077 2.25689 16.1927C2.24411 15.483 2.24133 14.2848 2.24133 12.1946V7.53535H3.60732H4.9733V8.20934C4.9733 8.46737 4.97948 8.67684 4.99746 8.84537C5.01532 9.01288 5.04556 9.14794 5.0984 9.25275C5.1533 9.36162 5.23163 9.43578 5.33705 9.48001C5.4378 9.52228 5.55724 9.53459 5.69108 9.53459C5.97971 9.53459 6.21463 9.36514 6.31998 9.08988L6.38058 7.53535ZM6.17084 2.36154C5.35102 3.25379 4.97999 4.2817 4.97531 5.64997M6.17084 2.36154L4.97531 5.64997M4.97531 5.64997L4.97364 6.13582L4.97531 5.64997ZM17.9774 6.39926C17.9321 6.34878 17.8746 6.29948 17.8144 6.26298M17.9774 6.39926L17.8144 6.26298M17.8144 6.26298C17.7649 6.23296 17.7151 6.20792 17.6399 6.1894M17.8144 6.26298C17.8144 6.26298 17.8144 6.26298 17.8144 6.26298L17.6399 6.1894M17.6399 6.1894C17.568 6.17168 17.4753 6.16053 17.3401 6.15297M17.6399 6.1894L17.3401 6.15297M17.3401 6.15297C17.0698 6.13785 16.6071 6.13612 15.752 6.13603M17.3401 6.15297L15.752 6.13603M15.752 6.13603L14.0267 6.13582M15.752 6.13603L14.0267 6.13582M14.0267 6.13582V5.68984C14.0267 5.00645 13.9424 4.44387 13.7566 3.90098C13.2866 2.52812 12.0803 1.41656 10.645 1.03027L14.0267 6.13582ZM10.3061 2.36447L10.3312 2.26766L10.3061 2.36447C11.1254 2.5765 11.9414 3.24441 12.2988 3.994L12.389 3.95096L12.2988 3.994C12.4281 4.26525 12.5072 4.47959 12.5548 4.71851C12.6026 4.95862 12.6194 5.22786 12.6194 5.61027V6.13581H9.5H6.38058V5.61027C6.38058 5.22786 6.39741 4.95862 6.44522 4.71851C6.4928 4.47959 6.57191 4.26525 6.70124 3.994L6.70124 3.994C7.05283 3.25652 7.86989 2.5809 8.66991 2.36713L8.66992 2.36712C8.86424 2.31518 9.17066 2.2873 9.48481 2.28677C9.79885 2.28624 10.1075 2.31306 10.3061 2.36447Z" fill="white" stroke="white" stroke-width="0.2"/>
</svg>
