<svg width="22" height="22" viewBox="0 0 22 22" fill="none" xmlns="http://www.w3.org/2000/svg">
<path d="M10.3313 0.942394C10.0477 1.00013 9.66816 1.1429 9.40742 1.28966C9.1178 1.45268 7.35208 2.58883 5.63527 3.70561C4.77564 4.26479 3.92659 4.82023 3.27794 5.24844C2.95365 5.46253 2.67926 5.64494 2.47862 5.78016C2.37834 5.84774 2.2962 5.90373 2.23536 5.94607C2.17682 5.98682 2.13285 6.01842 2.11348 6.03524L2.11347 6.03524C1.5979 6.48262 1.22874 7.04667 1.01869 7.70711L0.921475 8.01272L0.916807 8.02739L0.91677 8.04279L0.903345 13.6406C0.898588 15.6314 0.898809 17.0498 0.904624 17.9936C0.907531 18.4654 0.911839 18.8191 0.917637 19.0665C0.920535 19.1901 0.923818 19.2878 0.92752 19.3607C0.931096 19.4311 0.935303 19.4846 0.941231 19.5155C1.06192 20.1446 1.50489 20.658 2.14965 20.933L2.18888 20.841L2.14965 20.933L2.48817 21.0774L2.50675 21.0853L2.52694 21.0854L5.14971 21.0972C5.87118 21.1004 6.54327 21.1008 7.04495 21.0987C7.29576 21.0977 7.5042 21.096 7.65501 21.0938C7.73036 21.0927 7.79169 21.0915 7.83686 21.0901C7.87814 21.0888 7.91425 21.0873 7.93218 21.0844L7.91611 20.9857L7.93218 21.0844C8.04873 21.0654 8.1657 21.0065 8.26541 20.9286C8.36558 20.8504 8.45452 20.7483 8.51197 20.6353C8.55754 20.5458 8.57942 20.4596 8.59116 20.2634C8.60274 20.0701 8.60499 19.7579 8.60543 19.2108C8.60572 18.8465 8.61087 18.5219 8.61957 18.2731C8.62392 18.1486 8.62914 18.0437 8.63503 17.9626C8.6411 17.879 8.64748 17.827 8.65279 17.8042C8.80187 17.1637 9.39038 16.6122 10.2408 16.3573L10.2127 16.2634L10.2408 16.3573C10.5156 16.2749 10.65 16.2569 11.0118 16.257C11.2749 16.2571 11.555 16.2821 11.6948 16.3157L11.6948 16.3158C11.994 16.3876 12.3006 16.5239 12.5627 16.6923C12.8259 16.8615 13.0367 17.0584 13.1516 17.2469C13.2623 17.4286 13.3173 17.5412 13.3481 17.7793C13.3802 18.0277 13.3848 18.4064 13.3857 19.1196C13.3865 19.853 13.389 20.2483 13.4345 20.4856C13.4581 20.6087 13.4946 20.6986 13.554 20.7739C13.6113 20.8466 13.685 20.8989 13.7652 20.9535L13.9332 21.068L13.9587 21.0854H13.9895H16.7269H19.4642H19.4847L19.5035 21.0774L19.842 20.933L19.8027 20.841L19.842 20.933C20.4756 20.6628 20.9221 20.1529 21.0477 19.5391C21.0513 19.5212 21.0536 19.4943 21.0555 19.4658C21.0576 19.4349 21.0595 19.3949 21.0613 19.3468C21.065 19.2505 21.0684 19.1194 21.0716 18.9587C21.0779 18.6373 21.0831 18.1957 21.0873 17.6741C21.0957 16.6309 21.0999 15.266 21.1 13.8979C21.1001 12.5298 21.096 11.1581 21.0877 10.1012C21.0836 9.57274 21.0784 9.12272 21.0721 8.79106C21.069 8.62527 21.0656 8.48868 21.062 8.38649C21.0584 8.28723 21.0544 8.21386 21.0492 8.17963C20.9805 7.73076 20.7668 7.18191 20.5125 6.79996C20.413 6.65057 20.322 6.52451 20.1819 6.38248C20.0428 6.24146 19.8576 6.08691 19.5707 5.87689C18.9981 5.45757 18.0072 4.80761 16.1403 3.59124C15.1866 2.96983 14.2895 2.3905 13.6124 1.95769C13.2739 1.7413 12.9902 1.56142 12.7818 1.43118C12.5771 1.3032 12.438 1.21862 12.3948 1.19795C11.9593 0.989568 11.5062 0.895406 10.9736 0.900172L10.9736 0.900172C10.7288 0.902394 10.4396 0.92033 10.3313 0.942394ZM10.3313 0.942394L10.3508 1.0382L10.3313 0.942398C10.3313 0.942397 10.3313 0.942396 10.3313 0.942394ZM10.6998 2.4613C10.6225 2.47889 10.4875 2.52717 10.3998 2.56854C10.1043 2.70796 3.41829 7.04881 3.23194 7.22223L10.6998 2.4613ZM10.6998 2.4613C10.8973 2.4162 11.2892 2.45432 11.5035 2.5394L10.6998 2.4613ZM10.4425 2.65897C10.5251 2.62002 10.6531 2.57448 10.7219 2.55881L10.722 2.5588C10.8055 2.53975 10.9404 2.53695 11.0857 2.55106C11.23 2.56509 11.3714 2.59453 11.4666 2.63234C11.4666 2.63233 11.4674 2.63267 11.4694 2.63357L11.4768 2.63717C11.483 2.64032 11.491 2.64457 11.501 2.65005C11.5209 2.661 11.5469 2.67596 11.5789 2.69487C11.6429 2.73264 11.7289 2.78504 11.8339 2.85021C12.0439 2.98048 12.3287 3.16076 12.6634 3.37488C13.3328 3.80306 14.201 4.36587 15.0688 4.93311C15.9366 5.50035 16.8037 6.07184 17.471 6.51737C17.8046 6.74016 18.0881 6.93128 18.2966 7.07455C18.4008 7.14622 18.486 7.20566 18.5491 7.25099C18.6146 7.29797 18.6511 7.32607 18.6628 7.33689C18.7931 7.45753 18.9504 7.64231 19.0104 7.74173C19.0233 7.76309 19.0352 7.78226 19.0462 7.79999C19.0958 7.88018 19.1273 7.93107 19.1536 8.02347C19.1868 8.1402 19.2103 8.32259 19.2256 8.68877C19.2535 9.35589 19.2534 10.6022 19.2531 13.1021C19.2531 13.3385 19.2531 13.5861 19.2531 13.8454V19.2931L19.1738 19.3754L19.0958 19.4564L17.1401 19.4673L15.2403 19.4778L15.2178 18.5723C15.197 17.7295 15.1785 17.5075 15.0953 17.2253C14.7923 16.198 14.0449 15.4385 12.8843 14.9568L12.8475 15.0453L12.8843 14.9568C12.2461 14.6919 11.8032 14.6124 10.9956 14.6144C10.6192 14.6153 10.3673 14.6251 10.1281 14.6642C9.88838 14.7034 9.66532 14.7714 9.3459 14.8845C8.37241 15.229 7.46578 16.0033 7.08579 16.8263C6.96643 17.0848 6.89275 17.2887 6.84692 17.5575C6.80167 17.8231 6.78403 18.1496 6.77219 18.6518L6.75272 19.4778L4.85225 19.4673L2.89582 19.4564L2.81783 19.3754L2.73853 19.2931V13.8256C2.73853 13.5288 2.73849 13.2474 2.73846 12.9805C2.73815 10.5216 2.738 9.29584 2.76694 8.63696C2.78303 8.27082 2.80789 8.08933 2.84307 7.97141C2.87037 7.87991 2.90306 7.82686 2.95358 7.74486L10.4425 2.65897ZM10.4425 2.65897C10.4125 2.67314 10.2827 2.7516 10.0677 2.88618C9.85664 3.0183 9.57081 3.19978 9.23526 3.41436C8.56424 3.84346 7.69516 4.40443 6.82941 4.96651C5.96365 5.52859 5.1014 6.09168 4.44402 6.52503C4.1153 6.74172 3.83801 6.92584 3.63719 7.06113C3.53673 7.1288 3.45573 7.18404 3.39712 7.22493C3.36777 7.24541 3.34443 7.26201 3.32723 7.27463C3.31862 7.28095 3.3119 7.28601 3.30692 7.2899C3.30259 7.29328 3.3006 7.29498 3.30013 7.29538C3.30001 7.29548 3.29999 7.2955 3.30006 7.29543C3.20589 7.38308 3.06737 7.55569 2.9969 7.67373C2.9969 7.67374 2.99689 7.67374 2.99689 7.67375L10.4425 2.65897ZM13.8215 20.8709L13.9895 20.9854H16.7269H19.4642L13.8215 20.8709Z" fill="white" stroke="white" stroke-width="0.2"/>
</svg>
