<svg width="17" height="19" viewBox="0 0 17 19" fill="none" xmlns="http://www.w3.org/2000/svg">
<path fill-rule="evenodd" clip-rule="evenodd" d="M7.89636 0.0175648C6.85913 0.183559 5.9389 0.673429 5.24448 1.4292C4.44388 2.30052 4.07991 3.30328 4.07531 4.65031L4.0733 5.23581L2.24801 5.23603C0.534874 5.2362 0.411329 5.24312 0.237423 5.34851C0.135494 5.41025 0.037589 5.51935 0.0198247 5.59104C0.00206044 5.66273 -0.00512578 8.13756 0.00390008 11.0907L0.0202848 16.4601L0.178554 16.8529C0.496586 17.6422 1.05929 18.2584 1.80246 18.631C2.5531 19.0074 2.41806 19 8.5 19C14.5762 19 14.4402 19.0075 15.1975 18.6333C15.9302 18.2714 16.503 17.6435 16.8214 16.8529L16.9797 16.4601L16.9961 11.0907C17.0051 8.13756 16.9979 5.66273 16.9802 5.59104C16.9624 5.51935 16.8645 5.41025 16.7626 5.34851C16.5887 5.24312 16.4651 5.2362 14.752 5.23603L12.9267 5.23581V4.68984C12.9267 4.0153 12.8436 3.46397 12.662 2.93337C12.2031 1.59296 11.0232 0.50475 9.61898 0.126837C9.27289 0.0336726 8.21497 -0.0333872 7.89636 0.0175648ZM9.33118 1.26766C10.1785 1.48695 11.0187 2.17417 11.389 2.95096C11.652 3.50258 11.7194 3.84096 11.7194 4.61027V5.23581H8.5H5.28058V4.61027C5.28058 3.84096 5.34796 3.50258 5.61097 2.95096C5.97534 2.18668 6.81619 1.49175 7.64409 1.27052C8.05739 1.16004 8.9099 1.15862 9.33118 1.26766ZM4.0733 7.20934C4.0733 8.23803 4.17241 8.43459 4.69108 8.43459C4.93588 8.43459 5.13519 8.29298 5.2266 8.0541C5.25632 7.97653 5.28058 7.58057 5.28058 7.17421V6.43535H8.5H11.7194V7.16941C11.7194 7.57314 11.7472 7.9827 11.7812 8.07958C11.8597 8.30344 12.0606 8.43459 12.3248 8.43459C12.826 8.43459 12.9267 8.22952 12.9267 7.20934V6.43535H14.3927H15.8587V11.199C15.8587 15.8074 15.8549 15.9743 15.7434 16.3256C15.5374 16.9745 15.0853 17.4472 14.442 17.6864C14.1358 17.8002 14.0189 17.8024 8.5 17.8024C2.94536 17.8024 2.86608 17.8008 2.55184 17.684C1.91836 17.4486 1.42493 16.9174 1.23263 16.2641C1.15243 15.9916 1.14133 15.3743 1.14133 11.1946V6.43535H2.60732H4.0733V7.20934Z" fill="white"/>
</svg>
