<svg width="12" height="17" viewBox="0 0 12 17" fill="none" xmlns="http://www.w3.org/2000/svg">
<path fill-rule="evenodd" clip-rule="evenodd" d="M4.64718 0.124762C1.8933 0.825487 0.0278461 3.11734 0.000223892 5.83406C-0.0130799 7.13797 0.565746 8.7191 1.93885 11.1296C3.33428 13.5793 5.48397 16.6847 5.84723 16.7755C6.22616 16.8704 6.38141 16.7328 7.19846 15.579C9.28298 12.635 11.1025 9.43342 11.6992 7.6597C12.9363 3.98156 10.2098 0.169259 6.22559 0.00621368C5.64203 -0.0177207 5.02476 0.0286872 4.64718 0.124762ZM7.42756 1.40339C9.06448 1.91265 10.2448 3.18296 10.6898 4.91444C10.9011 5.73641 10.852 6.44354 10.5164 7.4162C10.2495 8.18895 9.26178 10.1667 8.59885 11.2555C7.8181 12.5376 6.07756 15.1322 5.9983 15.1322C5.89661 15.1322 3.78661 11.927 3.07632 10.6936C1.39937 7.78195 0.950766 6.31364 1.31042 4.91444C2.02093 2.15042 4.76545 0.575132 7.42756 1.40339ZM5.23785 3.70828C3.52944 4.32574 3.06933 6.49523 4.38314 7.73802C5.8965 9.16958 8.36772 8.07557 8.36772 5.97418C8.36772 4.3353 6.74782 3.16251 5.23785 3.70828ZM6.7096 5.02085C7.1174 5.34054 7.3023 5.9471 7.12326 6.37792C6.69224 7.41496 5.30685 7.41215 4.87515 6.37342C4.69329 5.93586 4.80333 5.52033 5.20797 5.11704C5.60956 4.71678 6.26799 4.67465 6.7096 5.02085Z" fill="white"/>
</svg>
