<svg width="28" height="28" viewBox="0 0 28 28" fill="none" xmlns="http://www.w3.org/2000/svg">
<path d="M23.3333 18.0833C21.875 18.0833 20.475 17.85 19.1683 17.4183C18.76 17.29 18.305 17.3833 17.9783 17.6983L15.4117 20.265C12.11 18.585 9.40333 15.89 7.72333 12.5883L10.29 10.01C10.6167 9.695 10.71 9.24 10.5817 8.83167C10.15 7.525 9.91667 6.125 9.91667 4.66667C9.91667 4.025 9.39167 3.5 8.75 3.5H4.66667C4.025 3.5 3.5 4.025 3.5 4.66667C3.5 15.6217 12.3783 24.5 23.3333 24.5C23.975 24.5 24.5 23.975 24.5 23.3333V19.25C24.5 18.6083 23.975 18.0833 23.3333 18.0833Z" fill="black"/>
</svg>
